<svg width="158" height="91" viewBox="0 0 158 91" fill="none" xmlns="http://www.w3.org/2000/svg">
<path d="M157.343 81.3705C157.958 80.9736 158.134 80.1534 157.737 79.5387C157.34 78.9239 156.52 78.7473 155.905 79.1443L157.343 81.3705ZM110.547 84.5571L109.881 85.7028L110.547 84.5571ZM93.8866 42.7859L94.9213 43.6136L93.8866 42.7859ZM111.996 39.1641L111.233 40.2474L111.996 39.1641ZM115.134 55.0999L113.883 54.663L115.134 55.0999ZM67.0854 61.3777L66.3674 62.4913L67.0854 61.3777ZM53.5641 21.2966L54.6383 22.0724L53.5641 21.2966ZM67.0854 18.1578L66.5286 19.3601L67.0854 18.1578ZM18.5536 36.991L19.4684 36.0326L18.5536 36.991ZM6.48096 1.98047L7.52826 1.16881C7.23213 0.786717 6.75142 0.596214 6.27394 0.67174C5.79648 0.747265 5.39803 1.07683 5.23428 1.53166L6.48096 1.98047ZM12.9187 12.4502C13.3669 13.0286 14.1992 13.1341 14.7776 12.6859C15.356 12.2376 15.4615 11.4053 15.0133 10.8269L12.9187 12.4502ZM0.888138 13.6043C0.640274 14.2928 0.997482 15.0519 1.686 15.2997C2.37453 15.5476 3.13362 15.1904 3.38148 14.5019L0.888138 13.6043ZM156.624 80.2574C155.905 79.1443 155.906 79.1441 155.906 79.144C155.906 79.144 155.906 79.144 155.906 79.144C155.905 79.1442 155.905 79.1446 155.904 79.1453C155.902 79.1466 155.898 79.1489 155.893 79.1521C155.883 79.1586 155.867 79.1688 155.845 79.1827C155.801 79.2106 155.733 79.2529 155.642 79.3085C155.461 79.4197 155.188 79.5836 154.832 79.7893C154.12 80.2009 153.074 80.7794 151.752 81.4383C149.105 82.7573 145.366 84.3911 140.999 85.6543C132.234 88.1895 121.14 89.1772 111.212 83.4113L109.881 85.7028C120.706 91.9899 132.65 90.8278 141.736 88.1999C146.294 86.8815 150.184 85.1805 152.934 83.8101C154.31 83.1242 155.404 82.5193 156.158 82.0837C156.535 81.8659 156.827 81.6902 157.027 81.5677C157.127 81.5065 157.204 81.4585 157.257 81.4252C157.283 81.4085 157.304 81.3955 157.318 81.3864C157.325 81.3818 157.331 81.3782 157.335 81.3755C157.337 81.3742 157.339 81.3731 157.34 81.3723C157.341 81.3719 157.341 81.3714 157.342 81.3712C157.342 81.3708 157.343 81.3705 156.624 80.2574ZM111.212 83.4113C103.459 78.9084 97.1171 71.6482 93.8784 64.1156C90.6315 56.5637 90.5972 49.0186 94.9213 43.6136L92.852 41.9581C87.683 48.4193 87.9847 57.1167 91.4439 65.1623C94.9114 73.2271 101.646 80.9195 109.881 85.7028L111.212 83.4113ZM94.9213 43.6136C96.1885 42.0295 98.8356 40.1054 101.949 39.1435C105.033 38.1907 108.375 38.2353 111.233 40.2474L112.758 38.0808C109.03 35.4548 104.767 35.4994 101.167 36.6116C97.5964 37.7147 94.4821 39.9204 92.852 41.9581L94.9213 43.6136ZM111.233 40.2474C113.934 42.1501 114.944 44.6492 115.125 47.2238C115.31 49.856 114.62 52.5532 113.883 54.663L116.385 55.5369C117.166 53.3005 117.991 50.2015 117.769 47.0381C117.543 43.8171 116.224 40.5214 112.758 38.0808L111.233 40.2474ZM113.883 54.663C110.946 63.0728 103.561 67.0404 94.7021 67.6216C85.8123 68.2048 75.6626 65.3316 67.8034 60.2641L66.3674 62.4913C74.6537 67.8341 85.361 70.8901 94.8756 70.2659C104.421 69.6397 112.988 65.2633 116.385 55.5369L113.883 54.663ZM67.8034 60.2641C61.0627 55.9178 55.463 49.4522 52.7239 42.5155C49.9961 35.6076 50.1247 28.322 54.6383 22.0724L52.49 20.5209C47.3316 27.6631 47.2791 35.9422 50.2591 43.4888C53.2277 51.0067 59.2246 57.8857 66.3674 62.4913L67.8034 60.2641ZM54.6383 22.0724C56.0539 20.1123 57.7916 18.8951 59.7325 18.4182C61.6771 17.9403 63.9634 18.172 66.5286 19.3601L67.6423 16.9554C64.6459 15.5677 61.741 15.1958 59.1001 15.8447C56.4554 16.4946 54.2132 18.1348 52.49 20.5209L54.6383 22.0724ZM66.5286 19.3601C68.8742 20.4464 70.1253 22.1194 70.6761 24.1537C71.2442 26.2519 71.0837 28.8145 70.3876 31.5992L72.9584 32.2419C73.711 29.2317 73.9669 26.1681 73.234 23.4612C72.4838 20.6904 70.7168 18.3794 67.6423 16.9554L66.5286 19.3601ZM70.3876 31.5992C68.0561 40.9251 58.9554 45.2879 48.2385 45.6167C37.5471 45.9446 25.9183 42.1892 19.4684 36.0326L17.6387 37.9495C24.7244 44.7131 37.1086 48.6093 48.3197 48.2654C59.5052 47.9223 70.1965 43.2897 72.9584 32.2419L70.3876 31.5992ZM19.4684 36.0326C14.4618 31.2535 11.5091 22.8457 9.82576 15.391C8.99301 11.7031 8.48665 8.3235 8.18869 5.86535C8.03983 4.6372 7.94325 3.64142 7.88405 2.95503C7.85446 2.61189 7.83421 2.34624 7.82144 2.16772C7.81506 2.07846 7.81055 2.01101 7.80768 1.96655C7.80623 1.94432 7.80521 1.92785 7.80455 1.91727C7.80423 1.91199 7.804 1.90818 7.80386 1.90586C7.80379 1.9047 7.80374 1.90392 7.80373 1.90351C7.80371 1.9033 7.80371 1.90328 7.8037 1.90318C7.80371 1.90325 7.80371 1.90341 6.48096 1.98047C5.1582 2.05752 5.15822 2.05788 5.15825 2.05833C5.15826 2.0586 5.15829 2.05915 5.15833 2.0597C5.15839 2.06081 5.15848 2.06229 5.15858 2.06415C5.15881 2.06787 5.15913 2.07309 5.15955 2.07979C5.16037 2.0932 5.16158 2.11255 5.16321 2.13769C5.16646 2.18796 5.17137 2.26139 5.17819 2.35676C5.19183 2.5475 5.21309 2.82606 5.24385 3.18275C5.30537 3.89603 5.405 4.92241 5.55794 6.18423C5.86362 8.70603 6.38342 12.1776 7.24084 15.9747C8.93785 23.4901 12.0215 32.5876 17.6387 37.9495L19.4684 36.0326ZM5.43365 2.79213L12.9187 12.4502L15.0133 10.8269L7.52826 1.16881L5.43365 2.79213ZM5.23428 1.53166L0.888138 13.6043L3.38148 14.5019L7.72763 2.42927L5.23428 1.53166Z" fill="#6C5FBC"/>
</svg>
